<svg xmlns="http://www.w3.org/2000/svg" width="69" height="34" fill="none"><g filter="url(#a)"><path fill="#fff" d="M4.761 25V1.727H20.99v4.568H10.386v4.773h9.773v4.58h-9.773v4.784H20.99V25H4.76Zm26.125.25c-1.287 0-2.458-.333-3.511-1s-1.894-1.667-2.523-3c-.628-1.333-.943-2.989-.943-4.966 0-2.053.326-3.742.977-5.068.652-1.326 1.504-2.307 2.557-2.943a6.533 6.533 0 0 1 3.42-.955c.917 0 1.701.16 2.353.477.651.311 1.19.713 1.614 1.205.424.492.746 1.004.965 1.534h.114V1.727h5.557V25h-5.5v-2.83h-.17a5.46 5.46 0 0 1-1 1.512c-.432.47-.974.848-1.626 1.136-.644.288-1.405.432-2.284.432Zm1.932-4.33c.674 0 1.25-.189 1.727-.568.478-.386.845-.928 1.103-1.625.257-.697.386-1.515.386-2.454 0-.955-.129-1.777-.386-2.466-.25-.69-.618-1.22-1.103-1.591-.477-.371-1.053-.557-1.727-.557-.69 0-1.272.19-1.75.568-.477.38-.84.913-1.09 1.602-.243.69-.364 1.504-.364 2.444s.125 1.757.375 2.454c.25.697.61 1.239 1.08 1.625.477.38 1.06.569 1.75.569ZM44.98 25V7.545h5.557V25H44.98Zm2.784-19.489c-.78 0-1.45-.257-2.011-.772-.56-.523-.841-1.152-.841-1.887 0-.727.28-1.348.84-1.863a2.847 2.847 0 0 1 2.012-.784c.788 0 1.458.26 2.012.784.56.515.84 1.136.84 1.863 0 .735-.28 1.364-.84 1.887-.554.515-1.224.772-2.012.772Zm16.162 2.034v4.091H52.915v-4.09h11.011Zm-8.704-4.181h5.556V19.51c0 .341.053.618.16.83a.993.993 0 0 0 .488.443c.212.083.466.125.761.125.213 0 .436-.019.671-.057.242-.045.424-.083.545-.113l.841 4.011c-.265.076-.64.17-1.125.284a9.344 9.344 0 0 1-1.716.216c-1.303.06-2.42-.09-3.352-.454-.924-.372-1.632-.947-2.125-1.728-.485-.78-.72-1.761-.704-2.943V3.364Z"/></g><defs><filter id="a" width="67.483" height="33.136" x=".761" y=".205" color-interpolation-filters="sRGB" filterUnits="userSpaceOnUse"><feFlood flood-opacity="0" result="BackgroundImageFix"/><feColorMatrix in="SourceAlpha" result="hardAlpha" values="0 0 0 0 0 0 0 0 0 0 0 0 0 0 0 0 0 0 127 0"/><feOffset dy="4"/><feGaussianBlur stdDeviation="2"/><feComposite in2="hardAlpha" operator="out"/><feColorMatrix values="0 0 0 0 0 0 0 0 0 0 0 0 0 0 0 0 0 0 0.25 0"/><feBlend in2="BackgroundImageFix" result="effect1_dropShadow_10_400"/><feBlend in="SourceGraphic" in2="effect1_dropShadow_10_400" result="shape"/></filter></defs></svg>