<svg xmlns="http://www.w3.org/2000/svg" width="73" height="73" fill="none"><g fill="#fff" filter="url(#a)"><path d="M31.062 48.977c1.36 1.654 3.263 2.481 5.438 2.481s4.078-.827 5.438-2.48L56.892 30.78c1.36-1.654 1.631-4.136.816-6.065-.816-1.93-2.72-3.309-4.894-3.309H46.56v-9.65c0-3.583-2.719-6.34-6.254-6.34h-7.34c-3.535 0-6.526 2.757-6.526 6.34v9.65h-6.254c-2.175.276-4.078 1.379-4.894 3.309-.816 1.93-.544 4.41.816 6.065l14.954 18.196Z"/><path d="M60.619 40.896c-1.617 0-2.695 1.083-2.695 2.708v6.771c0 2.167-1.886 4.063-4.042 4.063H18.849c-2.156-.271-4.043-2.167-4.043-4.334v-6.77c0-1.626-1.078-2.709-2.694-2.709-1.617 0-2.695 1.083-2.695 2.708v6.771c0 5.417 4.042 9.48 9.432 9.48H54.15c5.12 0 9.432-4.063 9.432-9.48v-6.77c-.27-1.355-1.347-2.438-2.964-2.438Z"/></g><defs><filter id="a" width="73" height="73" x="0" y="0" color-interpolation-filters="sRGB" filterUnits="userSpaceOnUse"><feFlood flood-opacity="0" result="BackgroundImageFix"/><feColorMatrix in="SourceAlpha" result="hardAlpha" values="0 0 0 0 0 0 0 0 0 0 0 0 0 0 0 0 0 0 127 0"/><feOffset dy="4"/><feGaussianBlur stdDeviation="2"/><feColorMatrix values="0 0 0 0 0 0 0 0 0 0 0 0 0 0 0 0 0 0 0.25 0"/><feBlend in2="BackgroundImageFix" result="effect1_dropShadow_13_554"/><feBlend in="SourceGraphic" in2="effect1_dropShadow_13_554" result="shape"/></filter></defs></svg>