<svg width="48" height="44" viewBox="0 0 48 44" fill="none" xmlns="http://www.w3.org/2000/svg"><g filter="url(#filter0_d_30_95)"><path fill-rule="evenodd" clip-rule="evenodd" d="M4.86182 7.675C4.86182 3.89256 7.78288 0.792969 11.5934 0.792969H18.3143C20.4925 0.792969 22.5773 1.55366 24.142 3.3825L26.3897 5.54603H36.7489C40.5594 5.54603 43.4804 8.64562 43.4804 12.4281V28.6677C43.4804 32.4501 40.5594 35.5497 36.7489 35.5497H11.5934C7.78288 35.5497 4.86182 32.4501 4.86182 28.6677V7.675ZM11.5934 4.65483C10.0272 4.65483 8.72368 5.91221 8.72368 7.675V28.6677C8.72368 30.4305 10.0272 31.6879 11.5934 31.6879H36.7489C38.3151 31.6879 39.6186 30.4305 39.6186 28.6677V12.4281C39.6186 10.6653 38.3151 9.40789 36.7489 9.40789H25.6113C25.112 9.40789 24.632 9.21443 24.2722 8.86811L21.3918 6.09549C21.3403 6.04592 21.2916 5.99351 21.2459 5.93853C20.5142 5.05813 19.5581 4.65483 18.3143 4.65483H11.5934Z" fill="white"/><path fill-rule="evenodd" clip-rule="evenodd" d="M24.1713 13.3437C25.2377 13.3437 26.1022 14.2083 26.1022 15.2747V24.9293C26.1022 25.9958 25.2377 26.8603 24.1713 26.8603C23.1048 26.8603 22.2403 25.9958 22.2403 24.9293V15.2747C22.2403 14.2083 23.1048 13.3437 24.1713 13.3437Z" fill="white"/><path fill-rule="evenodd" clip-rule="evenodd" d="M17.4128 20.1018C17.4128 19.0354 18.2773 18.1709 19.3438 18.1709H28.9984C30.0648 18.1709 30.9293 19.0354 30.9293 20.1018C30.9293 21.1683 30.0648 22.0328 28.9984 22.0328H19.3438C18.2773 22.0328 17.4128 21.1683 17.4128 20.1018Z" fill="white"/></g><defs><filter id="filter0_d_30_95" x="0.861816" y="0.792969" width="46.6187" height="42.7568" filterUnits="userSpaceOnUse" color-interpolation-filters="sRGB"><feFlood flood-opacity="0" result="BackgroundImageFix"/><feColorMatrix in="SourceAlpha" type="matrix" values="0 0 0 0 0 0 0 0 0 0 0 0 0 0 0 0 0 0 127 0" result="hardAlpha"/><feOffset dy="4"/><feGaussianBlur stdDeviation="2"/><feComposite in2="hardAlpha" operator="out"/><feColorMatrix type="matrix" values="0 0 0 0 0 0 0 0 0 0 0 0 0 0 0 0 0 0 0.25 0"/><feBlend mode="normal" in2="BackgroundImageFix" result="effect1_dropShadow_30_95"/><feBlend mode="normal" in="SourceGraphic" in2="effect1_dropShadow_30_95" result="shape"/></filter></defs></svg>