<svg xmlns="http://www.w3.org/2000/svg" width="44" height="47" fill="none"><g fill="#fff" filter="url(#a)"><path d="M27.923 28H16.077c-.539 0-1.077.552-1.077 1.105V38.5h14v-9.395c0-.553-.538-1.105-1.077-1.105Z"/><path d="M37.54 10.85 32.268 5.6c-1.406-1.225-3.34-2.1-5.448-2.1H10.65A6.1 6.1 0 0 0 4.5 9.625V32.55c0 3.325 2.636 5.95 6.151 5.95h1.055v-8.925c0-2.625 2.109-4.55 4.569-4.55h11.423c2.637 0 4.57 2.1 4.57 4.55V38.5h1.054c3.34 0 6.151-2.625 6.151-5.95V16.275c.176-2.1-.527-3.85-1.933-5.425Z"/></g><defs><filter id="a" width="50" height="50" x="-3" y="0" color-interpolation-filters="sRGB" filterUnits="userSpaceOnUse"><feFlood flood-opacity="0" result="BackgroundImageFix"/><feColorMatrix in="SourceAlpha" result="hardAlpha" values="0 0 0 0 0 0 0 0 0 0 0 0 0 0 0 0 0 0 127 0"/><feOffset dy="4"/><feGaussianBlur stdDeviation="2"/><feColorMatrix values="0 0 0 0 0 0 0 0 0 0 0 0 0 0 0 0 0 0 0.25 0"/><feBlend in2="BackgroundImageFix" result="effect1_dropShadow_9_285"/><feBlend in="SourceGraphic" in2="effect1_dropShadow_9_285" result="shape"/></filter></defs></svg>