<svg width="64" height="64" fill="none" xmlns="http://www.w3.org/2000/svg"><g filter="url(#filter0_d_32_224)"><path d="M54.8925 50.9361h.4663c.4972 0 .9742-.1975 1.3258-.5492.3516-.3516.5492-.8285.5492-1.3258v-13.78c0-10.0788-8.2013-18.2813-18.28-18.2813h-6.2763V8.8436c-.001-.36153-.1064-.71506-.3037-1.01803-.1972-.30297-.4779-.54245-.8081-.6896-.3302-.14715-.696-.19569-1.0531-.13978-.3572.05591-.6906.21389-.9601.45491L7.60252 27.2348c-.19498.1759-.35086.3907-.45756.6305-.1067.2399-.16183.4995-.16183.762 0 .2626.05513.5222.16183.7621.1067.2398.26258.4546.45756.6304l21.94378 19.785c.2695.2411.603.3991.9603.455.3573.0559.7231.0072 1.0534-.1401.3303-.1473.6109-.387.8081-.6901.1971-.3032.3024-.6569.3032-1.0185v-8.1613h8.3725c2.7497-.0006 5.4221.9099 7.5996 2.5891 2.1774 1.6793 3.7372 4.0326 4.4354 6.6922.104.402.3386.758.6669 1.0123.3282.2543.7316.3924 1.1468.3927zM41.0438 36.4998H30.8025c-.4973 0-.9742.1976-1.3258.5492-.3516.3517-.5492.8286-.5492 1.3258v5.8175L11.6588 28.6248l17.2687-15.5662v5.8162c0 .4973.1976.9742.5492 1.3259.3516.3516.8285.5491 1.3258.5491h8.1513c3.8525.0043 7.5459 1.5367 10.2699 4.261 2.724 2.7242 4.2561 6.4178 4.2601 10.2703v7.045c-1.5201-1.8232-3.4222-3.2902-5.5719-4.297-2.1497-1.0067-4.4944-1.5288-6.8681-1.5293z" fill="#fff"/></g><defs><filter id="filter0_d_32_224" x="-4" y="0" width="72" height="72" filterUnits="userSpaceOnUse" color-interpolation-filters="sRGB"><feFlood flood-opacity="0" result="BackgroundImageFix"/><feColorMatrix in="SourceAlpha" values="0 0 0 0 0 0 0 0 0 0 0 0 0 0 0 0 0 0 127 0" result="hardAlpha"/><feOffset dy="4"/><feGaussianBlur stdDeviation="2"/><feColorMatrix values="0 0 0 0 0 0 0 0 0 0 0 0 0 0 0 0 0 0 0.25 0"/><feBlend in2="BackgroundImageFix" result="effect1_dropShadow_32_224"/><feBlend in="SourceGraphic" in2="effect1_dropShadow_32_224" result="shape"/></filter></defs></svg>