<svg width="51" height="51" viewBox="0 0 51 51" fill="none" xmlns="http://www.w3.org/2000/svg">
<g filter="url(#filter0_d_0_1)">
<path fill-rule="evenodd" clip-rule="evenodd" d="M25.5 10.75C19.5629 10.75 14.75 15.5629 14.75 21.5C14.75 27.4371 19.5629 32.25 25.5 32.25C31.4371 32.25 36.25 27.4371 36.25 21.5C36.25 15.5629 31.4371 10.75 25.5 10.75ZM4 21.5C4 9.62588 13.6259 0 25.5 0C37.3741 0 47 9.62588 47 21.5C47 33.3741 37.3741 43 25.5 43C13.6259 43 4 33.3741 4 21.5Z" fill="white"/>
</g>
<path fill-rule="evenodd" clip-rule="evenodd" d="M38.0085 7.1858C40.3138 9.03535 40.6697 12.3869 38.8036 14.6716L20.5445 37.0262C18.6784 39.311 15.2968 39.6638 12.9915 37.8142C10.6862 35.9646 10.3303 32.6131 12.1964 30.3284L30.4555 7.97378C32.3216 5.68903 35.7032 5.33624 38.0085 7.1858Z" fill="white"/>
<defs>
<filter id="filter0_d_0_1" x="0" y="0" width="51" height="51" filterUnits="userSpaceOnUse" color-interpolation-filters="sRGB">
<feFlood flood-opacity="0" result="BackgroundImageFix"/>
<feColorMatrix in="SourceAlpha" type="matrix" values="0 0 0 0 0 0 0 0 0 0 0 0 0 0 0 0 0 0 127 0" result="hardAlpha"/>
<feOffset dy="4"/>
<feGaussianBlur stdDeviation="2"/>
<feComposite in2="hardAlpha" operator="out"/>
<feColorMatrix type="matrix" values="0 0 0 0 0 0 0 0 0 0 0 0 0 0 0 0 0 0 0.25 0"/>
<feBlend mode="normal" in2="BackgroundImageFix" result="effect1_dropShadow_0_1"/>
<feBlend mode="normal" in="SourceGraphic" in2="effect1_dropShadow_0_1" result="shape"/>
</filter>
</defs>
</svg>