<svg width="256" height="256" fill="none" xmlns="http://www.w3.org/2000/svg"><g filter="url(#filter0_d_6_1345)"><path fill-rule="evenodd" clip-rule="evenodd" d="M21.333 70.019C21.333 49.124 37.469 32 58.519 32h37.127c12.033 0 23.549 4.203 32.193 14.305l12.416 11.952h57.225c21.05 0 37.186 17.122 37.186 38.017v89.709c0 20.895-16.136 38.017-37.186 38.017H58.519c-21.05 0-37.186-17.122-37.186-38.017V70.019zm37.186-16.684c-8.652 0-15.853 6.946-15.853 16.684v115.965c0 9.738 7.201 16.684 15.853 16.684H197.48c8.652 0 15.853-6.946 15.853-16.684V96.275c0-9.738-7.201-16.684-15.853-16.684h-61.525a10.668 10.668 0 01-7.397-2.982l-15.911-15.316a10.704 10.704 0 01-.807-.867c-4.041-4.863-9.323-7.091-16.194-7.091H58.52z" fill="#fff"/></g><defs><filter id="filter0_d_6_1345" x="-4" y="0" width="264" height="264" filterUnits="userSpaceOnUse" color-interpolation-filters="sRGB"><feFlood flood-opacity="0" result="BackgroundImageFix"/><feColorMatrix in="SourceAlpha" values="0 0 0 0 0 0 0 0 0 0 0 0 0 0 0 0 0 0 127 0" result="hardAlpha"/><feOffset dy="4"/><feGaussianBlur stdDeviation="2"/><feColorMatrix values="0 0 0 0 0 0 0 0 0 0 0 0 0 0 0 0 0 0 0.25 0"/><feBlend in2="BackgroundImageFix" result="effect1_dropShadow_6_1345"/><feBlend in="SourceGraphic" in2="effect1_dropShadow_6_1345" result="shape"/></filter></defs></svg>