<svg xmlns="http://www.w3.org/2000/svg" width="50" height="54" fill="none"><g filter="url(#a)"><path fill="#fff" fill-rule="evenodd" d="M20.833 8.333c-1.15 0-2.083.933-2.083 2.083h12.5c0-1.15-.933-2.083-2.083-2.083h-8.334Zm14.584 6.25H14.583v20.834a6.25 6.25 0 0 0 6.25 6.25h8.334a6.25 6.25 0 0 0 6.25-6.25V14.582Zm-25 0v20.834c0 5.752 4.663 10.416 10.416 10.416h8.334c5.753 0 10.416-4.663 10.416-10.416V14.582h2.084a2.083 2.083 0 0 0 0-4.167h-6.25a6.25 6.25 0 0 0-6.25-6.25h-8.334a6.25 6.25 0 0 0-6.25 6.25h-6.25a2.083 2.083 0 1 0 0 4.167h2.084Z" clip-rule="evenodd"/></g><defs><filter id="a" width="58" height="58" x="-4" y="0" color-interpolation-filters="sRGB" filterUnits="userSpaceOnUse"><feFlood flood-opacity="0" result="BackgroundImageFix"/><feColorMatrix in="SourceAlpha" result="hardAlpha" values="0 0 0 0 0 0 0 0 0 0 0 0 0 0 0 0 0 0 127 0"/><feOffset dy="4"/><feGaussianBlur stdDeviation="2"/><feComposite in2="hardAlpha" operator="out"/><feColorMatrix values="0 0 0 0 0 0 0 0 0 0 0 0 0 0 0 0 0 0 0.25 0"/><feBlend in2="BackgroundImageFix" result="effect1_dropShadow_7_1400"/><feBlend in="SourceGraphic" in2="effect1_dropShadow_7_1400" result="shape"/></filter></defs></svg>