<svg xmlns="http://www.w3.org/2000/svg" width="48" height="51" fill="none"><g fill="#fff" filter="url(#a)"><path d="M17.86 40.55H11.46a4.655 4.655 0 0 1-4.668-4.68V19.573c0-2.08 1.037-4.16 2.94-5.374l11.93-7.627c1.557-1.04 3.46-1.04 5.015 0L38.61 14.2c1.729 1.214 2.94 3.12 2.94 5.374V35.87c0 2.6-2.076 4.68-4.67 4.68H17.86Z"/><path fill-rule="evenodd" d="M25.605 8.178c-.906-.606-1.961-.606-2.868 0l-.033.022-11.932 7.627a4.46 4.46 0 0 0-2.048 3.747V35.87a2.724 2.724 0 0 0 2.738 2.75H36.88a2.724 2.724 0 0 0 2.738-2.75V19.574c0-1.504-.796-2.853-2.087-3.77L25.638 8.2l-.033-.022Zm2.129-3.222c-2.197-1.459-4.929-1.459-7.125 0L8.694 12.572a8.32 8.32 0 0 0-3.832 7.002V35.87a6.586 6.586 0 0 0 6.6 6.611H36.88c3.664 0 6.6-2.949 6.6-6.611V19.574c0-2.99-1.613-5.446-3.762-6.954a1.892 1.892 0 0 0-.07-.047L27.735 4.956Z" clip-rule="evenodd"/></g><defs><filter id="a" width="54.342" height="54.342" x="-3" y="0" color-interpolation-filters="sRGB" filterUnits="userSpaceOnUse"><feFlood flood-opacity="0" result="BackgroundImageFix"/><feColorMatrix in="SourceAlpha" result="hardAlpha" values="0 0 0 0 0 0 0 0 0 0 0 0 0 0 0 0 0 0 127 0"/><feOffset dy="4"/><feGaussianBlur stdDeviation="2"/><feColorMatrix values="0 0 0 0 0 0 0 0 0 0 0 0 0 0 0 0 0 0 0.25 0"/><feBlend in2="BackgroundImageFix" result="effect1_dropShadow_6_1367"/><feBlend in="SourceGraphic" in2="effect1_dropShadow_6_1367" result="shape"/></filter></defs></svg>