<svg xmlns="http://www.w3.org/2000/svg" width="48" height="51" fill="none"><g fill="#fff" filter="url(#a)"><path fill-rule="evenodd" d="M24.171 7.724c-8.531 0-15.447 6.916-15.447 15.447 0 8.532 6.916 15.448 15.447 15.448 8.532 0 15.448-6.916 15.448-15.448 0-8.531-6.916-15.447-15.448-15.447ZM4.862 23.17c0-10.664 8.645-19.309 19.31-19.309 10.664 0 19.309 8.645 19.309 19.31 0 10.664-8.645 19.309-19.31 19.309-10.664 0-19.309-8.645-19.309-19.31Z" clip-rule="evenodd"/><path d="M15.096 26.261a3.09 3.09 0 1 0 0-6.179 3.09 3.09 0 0 0 0 6.179ZM24.171 26.261a3.09 3.09 0 1 0 0-6.179 3.09 3.09 0 0 0 0 6.179ZM33.247 26.261a3.09 3.09 0 1 0 0-6.179 3.09 3.09 0 0 0 0 6.179Z"/></g><defs><filter id="a" width="54.342" height="54.342" x="-3" y="0" color-interpolation-filters="sRGB" filterUnits="userSpaceOnUse"><feFlood flood-opacity="0" result="BackgroundImageFix"/><feColorMatrix in="SourceAlpha" result="hardAlpha" values="0 0 0 0 0 0 0 0 0 0 0 0 0 0 0 0 0 0 127 0"/><feOffset dy="4"/><feGaussianBlur stdDeviation="2"/><feColorMatrix values="0 0 0 0 0 0 0 0 0 0 0 0 0 0 0 0 0 0 0.25 0"/><feBlend in2="BackgroundImageFix" result="effect1_dropShadow_13_564"/><feBlend in="SourceGraphic" in2="effect1_dropShadow_13_564" result="shape"/></filter></defs></svg>