<svg xmlns="http://www.w3.org/2000/svg" width="44" height="49" fill="none"><g fill="#fff" fill-rule="evenodd" clip-rule="evenodd" filter="url(#a)"><path d="M15 21.931c0-1.066.864-1.93 1.931-1.93h9.655a1.931 1.931 0 0 1 0 3.861H16.93A1.93 1.93 0 0 1 15 21.932Z"/><path d="M21.931 15a1.93 1.93 0 0 1 1.93 1.931v9.655a1.931 1.931 0 1 1-3.861 0V16.93c0-1.066.864-1.93 1.931-1.93Z"/><path d="M4 7.025C4 3.347 7.16.083 11.455.083h11.316c2.363 0 4.756.8 6.565 2.432l.022.02 8.137 7.545c1.804 1.634 2.72 4.028 2.462 6.25v17.645c0 3.678-3.16 6.942-7.455 6.942H11.455C7.16 40.917 4 37.653 4 33.975V7.025Zm7.455-2.858C9.867 4.167 8.5 5.395 8.5 7.025v26.95c0 1.63 1.367 2.858 2.955 2.858h21.047c1.588 0 2.955-1.228 2.955-2.858V16.213c0-.085.006-.17.018-.255.139-1.002-.298-2.212-1.165-2.993l-.022-.02-8.135-7.543c-.906-.813-2.129-1.235-3.382-1.235H11.455Z"/></g><defs><filter id="a" width="44" height="48.834" x="0" y=".083" color-interpolation-filters="sRGB" filterUnits="userSpaceOnUse"><feFlood flood-opacity="0" result="BackgroundImageFix"/><feColorMatrix in="SourceAlpha" result="hardAlpha" values="0 0 0 0 0 0 0 0 0 0 0 0 0 0 0 0 0 0 127 0"/><feOffset dy="4"/><feGaussianBlur stdDeviation="2"/><feComposite in2="hardAlpha" operator="out"/><feColorMatrix values="0 0 0 0 0 0 0 0 0 0 0 0 0 0 0 0 0 0 0.25 0"/><feBlend in2="BackgroundImageFix" result="effect1_dropShadow_28_96"/><feBlend in="SourceGraphic" in2="effect1_dropShadow_28_96" result="shape"/></filter></defs></svg>