<svg xmlns="http://www.w3.org/2000/svg" width="48" height="52" fill="none"><g fill="#A0A0A0" fill-rule="evenodd" clip-rule="evenodd" filter="url(#a)"><path d="M17.331 17.819c-2.855 2.935-2.855 7.694 0 10.629a7.17 7.17 0 0 0 10.338 0c2.855-2.935 2.855-7.694 0-10.63a7.17 7.17 0 0 0-10.338 0ZM11.25 34.7c-6.213-6.388-6.213-16.745 0-23.133 6.213-6.389 16.287-6.389 22.5 0 6.213 6.388 6.213 16.745 0 23.133-6.213 6.388-16.287 6.388-22.5 0Z"/><path d="M27.463 28.453a4.217 4.217 0 0 1 6.08-.169l8.17 7.958c1.723 1.68 1.797 4.478.163 6.25a4.217 4.217 0 0 1-6.078.17l-8.17-7.959c-1.724-1.679-1.798-4.477-.165-6.25Z"/></g><defs><filter id="a" width="44.465" height="45.098" x="2.59" y="6.775" color-interpolation-filters="sRGB" filterUnits="userSpaceOnUse"><feFlood flood-opacity="0" result="BackgroundImageFix"/><feColorMatrix in="SourceAlpha" result="hardAlpha" values="0 0 0 0 0 0 0 0 0 0 0 0 0 0 0 0 0 0 127 0"/><feOffset dy="4"/><feGaussianBlur stdDeviation="2"/><feComposite in2="hardAlpha" operator="out"/><feColorMatrix values="0 0 0 0 0 0 0 0 0 0 0 0 0 0 0 0 0 0 0.25 0"/><feBlend in2="BackgroundImageFix" result="effect1_dropShadow_6_1340"/><feBlend in="SourceGraphic" in2="effect1_dropShadow_6_1340" result="shape"/></filter></defs></svg>